# xmcd
# 
# Track frame offsets:
#     150
#     15166
#     43565
#     63988
#     71537
#     81737
#     102743
#     107797
#     115349
#     135935
#     143936
#     153494
#     176083
#     209506
# 
# Disc length: 3394
# 
# Revision: 1
# Processed by: cddbd v1.5.2PL0 Copyright (c) Steve Scherf et al.
# Submitted via: fre:ac v1.0.31
# 
DISCID=c90d400e
DTITLE=Martha and Vahid Khadem-Missagh - A Taste of Life
DYEAR=2009
DGENRE=Klassik
TTITLE0=J.S.Bach - Konzert für zwei Violinen und Orchester d-moll BWV 1043 - I. Vivace
TTITLE1=J.S.Bach - Konzert für zwei Violinen und Orchester d-moll BWV 1043 - II. Largo ma non troppo
TTITLE2=J.S.Bach - Konzert für zwei Violinen und Orchester d-moll BWV 1043 - I. Allegro
TTITLE3=W.Pirchner - Konzert für zwei Solo-Violinen ohne Orchester PWV 33 - I. Waves
TTITLE4=W.Pirchner - Konzert für zwei Solo-Violinen ohne Orchester PWV 33 - II. A Taste of Life
TTITLE5=W.Pirchner - Konzert für zwei Solo-Violinen ohne Orchester PWV 33 - III. Doppler-Bells
TTITLE6=W.Pirchner - Konzert für zwei Solo-Violinen ohne Orchester PWV 33 - IV. Another Taste of Life
TTITLE7=W.Pirchner - Konzert für zwei Solo-Violinen ohne Orchester PWV 33 - V. Auf Wolken im Gras
TTITLE8=W.Pirchner - Konzert für zwei Solo-Violinen ohne Orchester PWV 33 - VI. Raga
TTITLE9=W.Pirchner - Konzert für zwei Solo-Violinen ohne Orchester PWV 33 - VII. Largo
TTITLE10=W.Pirchner - Konzert für zwei Solo-Violinen ohne Orchester PWV 33 - VIII. Almweiss-Edelrausch
TTITLE11=Z.Kodály - Serenade für zwei Violinen und Viola op. 12 - I. Allegramente
TTITLE12=Z.Kodály - Serenade für zwei Violinen und Viola op. 12 - II. Lento ma non troppo
TTITLE13=Z.Kodály - Serenade für zwei Violinen und Viola op. 12 - III. Vivo
EXTD=
EXTT0=
EXTT1=
EXTT2=
EXTT3=
EXTT4=
EXTT5=
EXTT6=
EXTT7=
EXTT8=
EXTT9=
EXTT10=
EXTT11=
EXTT12=
EXTT13=
PLAYORDER=
